<svg xmlns="http://www.w3.org/2000/svg" xmlns:xlink="http://www.w3.org/1999/xlink" width="263" zoomAndPan="magnify" viewBox="0 0 197.25 39.749999" height="53" preserveAspectRatio="xMidYMid meet" version="1.0"><defs><g/><clipPath id="26a637ef86"><path d="M 0.242188 0 L 196.261719 0 L 196.261719 39.5 L 0.242188 39.5 Z M 0.242188 0 " clip-rule="nonzero"/></clipPath><clipPath id="9b030f877b"><path d="M 3 36 L 31 36 L 31 37.421875 L 3 37.421875 Z M 3 36 " clip-rule="nonzero"/></clipPath><clipPath id="752d5918d6"><path d="M 43 36 L 70 36 L 70 37.421875 L 43 37.421875 Z M 43 36 " clip-rule="nonzero"/></clipPath><clipPath id="2a06fb5d9f"><path d="M 0.242188 29 L 31 29 L 31 36 L 0.242188 36 Z M 0.242188 29 " clip-rule="nonzero"/></clipPath><clipPath id="8547751245"><path d="M 42 29 L 72.910156 29 L 72.910156 37 L 42 37 Z M 42 29 " clip-rule="nonzero"/></clipPath><clipPath id="80fc729d7c"><path d="M 29 29 L 45 29 L 45 37.421875 L 29 37.421875 Z M 29 29 " clip-rule="nonzero"/></clipPath><clipPath id="e06c47245a"><path d="M 30 30 L 44 30 L 44 37.421875 L 30 37.421875 Z M 30 30 " clip-rule="nonzero"/></clipPath></defs><g clip-path="url(#26a637ef86)"><path fill="#ffffff" d="M 0.242188 0 L 196.261719 0 L 196.261719 39.5 L 0.242188 39.5 Z M 0.242188 0 " fill-opacity="1" fill-rule="nonzero"/></g><path fill="#000000" d="M 36.347656 0.0195312 L 36.800781 0.0195312 L 36.921875 30.703125 L 36.46875 30.707031 Z M 36.347656 0.0195312 " fill-opacity="1" fill-rule="nonzero"/><path fill="#000000" d="M 25.902344 11.890625 L 26.320312 11.714844 L 34.445312 31.109375 L 34.027344 31.285156 Z M 25.902344 11.890625 " fill-opacity="1" fill-rule="nonzero"/><path fill="#000000" d="M 18.972656 19.828125 L 19.292969 19.503906 L 32.316406 32.425781 L 31.996094 32.746094 Z M 18.972656 19.828125 " fill-opacity="1" fill-rule="nonzero"/><path fill="#000000" d="M 12.390625 27.375 L 12.5625 26.953125 L 30.851562 34.445312 L 30.679688 34.863281 Z M 12.390625 27.375 " fill-opacity="1" fill-rule="nonzero"/><g clip-path="url(#9b030f877b)"><path fill="#000000" d="M 3.570312 36.90625 L 30.265625 36.800781 L 30.269531 37.253906 L 3.570312 37.363281 Z M 3.570312 36.90625 " fill-opacity="1" fill-rule="nonzero"/></g><g clip-path="url(#752d5918d6)"><path fill="#000000" d="M 43.144531 36.898438 L 69.296875 36.796875 L 69.296875 37.25 L 43.144531 37.351562 Z M 43.144531 36.898438 " fill-opacity="1" fill-rule="nonzero"/></g><path fill="#000000" d="M 42.582031 34.5 L 60.511719 26.992188 L 60.6875 27.410156 L 42.757812 34.917969 Z M 42.582031 34.5 " fill-opacity="1" fill-rule="nonzero"/><path fill="#000000" d="M 41.101562 32.441406 L 53.875 19.578125 L 54.195312 19.898438 L 41.425781 32.761719 Z M 41.101562 32.441406 " fill-opacity="1" fill-rule="nonzero"/><path fill="#000000" d="M 38.953125 31.109375 L 46.882812 11.753906 L 47.300781 11.925781 L 39.375 31.28125 Z M 38.953125 31.109375 " fill-opacity="1" fill-rule="nonzero"/><path fill="#000000" d="M 29.132812 0.777344 L 29.578125 0.683594 L 35.691406 30.78125 L 35.246094 30.871094 Z M 29.132812 0.777344 " fill-opacity="1" fill-rule="nonzero"/><path fill="#000000" d="M 15.832031 6.382812 L 16.207031 6.128906 L 33.386719 31.617188 L 33.011719 31.871094 Z M 15.832031 6.382812 " fill-opacity="1" fill-rule="nonzero"/><path fill="#000000" d="M 5.6875 16.652344 L 5.9375 16.273438 L 31.5625 33.25 L 31.3125 33.628906 Z M 5.6875 16.652344 " fill-opacity="1" fill-rule="nonzero"/><g clip-path="url(#2a06fb5d9f)"><path fill="#000000" d="M 0.242188 30.023438 L 0.328125 29.574219 L 30.476562 35.445312 L 30.390625 35.890625 Z M 0.242188 30.023438 " fill-opacity="1" fill-rule="nonzero"/></g><g clip-path="url(#8547751245)"><path fill="#000000" d="M 42.972656 35.640625 L 72.8125 29.574219 L 72.902344 30.019531 L 43.0625 36.085938 Z M 42.972656 35.640625 " fill-opacity="1" fill-rule="nonzero"/></g><path fill="#000000" d="M 41.898438 33.328125 L 67.210938 16.28125 L 67.464844 16.65625 L 42.152344 33.703125 Z M 41.898438 33.328125 " fill-opacity="1" fill-rule="nonzero"/><path fill="#000000" d="M 40.039062 31.632812 L 56.941406 6.132812 L 57.320312 6.382812 L 40.417969 31.882812 Z M 40.039062 31.632812 " fill-opacity="1" fill-rule="nonzero"/><path fill="#000000" d="M 37.707031 30.78125 L 43.5625 0.6875 L 44.007812 0.773438 L 38.152344 30.867188 Z M 37.707031 30.78125 " fill-opacity="1" fill-rule="nonzero"/><g clip-path="url(#80fc729d7c)"><path fill="#000000" d="M 42.261719 37.355469 L 42.261719 37.128906 C 42.257812 36.757812 42.222656 36.390625 42.148438 36.039062 C 42.082031 35.703125 41.980469 35.367188 41.851562 35.050781 C 41.703125 34.691406 41.515625 34.34375 41.296875 34.019531 C 41.101562 33.734375 40.882812 33.46875 40.640625 33.226562 C 40.367188 32.957031 40.070312 32.710938 39.746094 32.5 C 39.457031 32.3125 39.148438 32.148438 38.828125 32.015625 C 38.484375 31.875 38.125 31.765625 37.761719 31.695312 C 37.414062 31.628906 37.058594 31.59375 36.707031 31.59375 C 36.339844 31.59375 35.980469 31.628906 35.632812 31.699219 C 35.269531 31.769531 34.914062 31.875 34.574219 32.019531 C 34.261719 32.148438 33.960938 32.304688 33.679688 32.492188 C 33.355469 32.699219 33.050781 32.945312 32.78125 33.21875 C 31.710938 34.28125 31.144531 35.621094 31.144531 37.085938 L 31.144531 37.3125 L 29.375 37.3125 L 29.375 37.085938 C 29.375 35.140625 30.121094 33.367188 31.53125 31.964844 C 31.890625 31.605469 32.285156 31.285156 32.714844 31.007812 C 33.085938 30.765625 33.484375 30.554688 33.894531 30.386719 C 34.34375 30.199219 34.816406 30.054688 35.296875 29.964844 C 35.753906 29.875 36.222656 29.828125 36.691406 29.828125 C 37.167969 29.828125 37.636719 29.871094 38.09375 29.960938 C 38.574219 30.054688 39.046875 30.195312 39.5 30.382812 C 39.921875 30.558594 40.332031 30.773438 40.714844 31.023438 C 41.136719 31.304688 41.53125 31.625 41.890625 31.980469 C 42.210938 32.300781 42.5 32.652344 42.753906 33.023438 C 43.042969 33.449219 43.289062 33.90625 43.484375 34.382812 C 43.65625 34.804688 43.789062 35.242188 43.882812 35.6875 C 43.976562 36.15625 44.027344 36.636719 44.027344 37.121094 L 44.027344 37.347656 Z M 36.695312 31.140625 C 37.089844 31.140625 37.472656 31.175781 37.847656 31.25 C 38.242188 31.324219 38.628906 31.441406 39 31.59375 C 39.347656 31.738281 39.683594 31.914062 39.996094 32.121094 C 40.34375 32.351562 40.671875 32.613281 40.960938 32.90625 C 41.222656 33.167969 41.460938 33.457031 41.671875 33.765625 C 41.910156 34.113281 42.109375 34.488281 42.269531 34.878906 C 42.410156 35.222656 42.523438 35.582031 42.597656 35.945312 C 42.660156 36.257812 42.699219 36.578125 42.710938 36.898438 L 43.574219 36.894531 C 43.558594 36.519531 43.511719 36.144531 43.441406 35.777344 C 43.355469 35.359375 43.230469 34.949219 43.066406 34.550781 C 42.882812 34.105469 42.652344 33.675781 42.382812 33.277344 C 42.144531 32.929688 41.871094 32.601562 41.570312 32.300781 C 41.234375 31.964844 40.867188 31.664062 40.46875 31.402344 C 40.109375 31.167969 39.726562 30.964844 39.328125 30.800781 C 38.90625 30.625 38.460938 30.492188 38.011719 30.40625 C 37.582031 30.324219 37.140625 30.28125 36.703125 30.28125 C 36.253906 30.28125 35.8125 30.324219 35.382812 30.410156 C 34.933594 30.496094 34.492188 30.628906 34.070312 30.804688 C 33.683594 30.964844 33.3125 31.160156 32.964844 31.390625 C 32.5625 31.648438 32.191406 31.949219 31.851562 32.285156 C 30.585938 33.546875 29.890625 35.125 29.835938 36.859375 L 30.699219 36.859375 C 30.753906 35.359375 31.359375 33.992188 32.460938 32.894531 C 32.757812 32.601562 33.082031 32.335938 33.433594 32.109375 C 33.738281 31.910156 34.0625 31.738281 34.402344 31.597656 C 34.769531 31.445312 35.15625 31.332031 35.550781 31.253906 C 35.925781 31.179688 36.3125 31.140625 36.695312 31.140625 Z M 36.695312 31.140625 " fill-opacity="1" fill-rule="nonzero"/></g><g clip-path="url(#e06c47245a)"><path fill="#000000" d="M 42.917969 37.125 C 42.917969 36.714844 42.875 36.304688 42.792969 35.90625 C 42.71875 35.53125 42.605469 35.15625 42.457031 34.800781 C 42.292969 34.398438 42.085938 34.011719 41.839844 33.648438 C 41.625 33.332031 41.375 33.035156 41.105469 32.761719 C 40.804688 32.460938 40.46875 32.1875 40.109375 31.949219 C 39.785156 31.738281 39.4375 31.554688 39.078125 31.40625 C 38.695312 31.246094 38.296875 31.128906 37.886719 31.046875 C 37.5 30.972656 37.101562 30.933594 36.707031 30.933594 C 36.296875 30.933594 35.898438 30.972656 35.511719 31.050781 C 35.101562 31.128906 34.703125 31.25 34.320312 31.410156 C 33.972656 31.550781 33.636719 31.730469 33.320312 31.9375 C 32.960938 32.171875 32.621094 32.445312 32.316406 32.75 C 31.121094 33.941406 30.492188 35.441406 30.492188 37.085938 L 30.035156 37.085938 C 30.035156 35.316406 30.714844 33.707031 31.996094 32.429688 C 32.324219 32.101562 32.683594 31.808594 33.074219 31.558594 C 33.414062 31.335938 33.773438 31.144531 34.148438 30.992188 C 34.558594 30.820312 34.988281 30.691406 35.421875 30.605469 C 35.839844 30.523438 36.269531 30.484375 36.695312 30.484375 L 36.699219 30.484375 C 37.128906 30.484375 37.558594 30.523438 37.972656 30.605469 C 38.410156 30.6875 38.839844 30.816406 39.253906 30.988281 C 39.636719 31.148438 40.007812 31.34375 40.355469 31.574219 C 40.742188 31.824219 41.101562 32.117188 41.425781 32.445312 C 41.71875 32.734375 41.980469 33.054688 42.214844 33.394531 C 42.480469 33.78125 42.699219 34.195312 42.878906 34.628906 C 43.035156 35.011719 43.15625 35.414062 43.238281 35.816406 C 43.324219 36.242188 43.371094 36.683594 43.371094 37.121094 L 42.917969 37.121094 Z M 42.917969 37.125 " fill-opacity="1" fill-rule="nonzero"/></g><g fill="#000000" fill-opacity="1"><g transform="translate(75.384362, 22.646139)"><g><path d="M 0.761719 0 L 3.804688 0 C 7.433594 0 8.6875 -1.761719 8.65625 -3.433594 C 8.640625 -4.894531 7.566406 -6.105469 5.132812 -6.222656 C 6.835938 -6.535156 7.492188 -7.460938 7.492188 -8.476562 C 7.492188 -9.6875 6.550781 -10.445312 4.253906 -10.445312 L 0.761719 -10.445312 L 0.761719 -10.253906 C 1.207031 -10.117188 1.359375 -9.777344 1.359375 -8.550781 L 1.359375 -1.894531 C 1.359375 -0.671875 1.207031 -0.328125 0.761719 -0.195312 Z M 2.582031 -1.523438 L 2.582031 -6.03125 L 4.105469 -6.03125 C 6.34375 -6.03125 7.296875 -4.777344 7.296875 -3.058594 C 7.296875 -1.402344 6.371094 -0.222656 3.941406 -0.222656 L 3.359375 -0.222656 C 2.714844 -0.222656 2.582031 -0.449219 2.582031 -1.523438 Z M 2.582031 -6.253906 L 2.582031 -10.222656 L 3.714844 -10.222656 C 5.253906 -10.222656 6.132812 -9.445312 6.132812 -8.207031 C 6.132812 -7.117188 5.449219 -6.253906 3.96875 -6.253906 Z M 2.582031 -6.253906 "/></g></g></g><g fill="#000000" fill-opacity="1"><g transform="translate(86.800097, 22.646139)"><g><path d="M 0.761719 0 L 7.699219 0 L 7.804688 -1.6875 L 7.640625 -1.714844 C 7.117188 -0.597656 6.460938 -0.238281 5.03125 -0.238281 L 3.253906 -0.238281 C 2.820312 -0.238281 2.582031 -0.476562 2.582031 -0.910156 L 2.582031 -8.550781 C 2.582031 -9.777344 2.714844 -10.117188 3.179688 -10.253906 L 3.179688 -10.445312 L 0.761719 -10.445312 L 0.761719 -10.253906 C 1.207031 -10.117188 1.359375 -9.777344 1.359375 -8.550781 L 1.359375 -1.894531 C 1.359375 -0.671875 1.207031 -0.328125 0.761719 -0.195312 Z M 0.761719 0 "/></g></g></g><g fill="#000000" fill-opacity="1"><g transform="translate(97.186242, 22.646139)"><g><path d="M -0.253906 0 L 1.433594 0 L 1.433594 -0.195312 C 0.925781 -0.296875 0.867188 -0.789062 1.253906 -1.761719 L 2.132812 -3.941406 L 6.34375 -3.941406 L 7.253906 -1.746094 C 7.730469 -0.625 7.851562 -0.328125 7.386719 -0.195312 L 7.386719 0 L 9.699219 0 L 9.699219 -0.195312 C 9.386719 -0.328125 9.027344 -0.625 8.566406 -1.746094 L 4.894531 -10.566406 L 3.777344 -10.058594 L 3.910156 -9.746094 C 4.03125 -9.507812 4.042969 -9.3125 3.941406 -9.042969 L 1 -1.761719 C 0.539062 -0.625 0.164062 -0.328125 -0.253906 -0.195312 Z M 2.222656 -4.164062 L 4.207031 -9.074219 L 6.253906 -4.164062 Z M 2.222656 -4.164062 "/></g></g></g><g fill="#000000" fill-opacity="1"><g transform="translate(109.034704, 22.646139)"><g><path d="M 6.402344 0.148438 C 8.074219 0.148438 9.492188 -0.269531 10.191406 -0.65625 L 10.433594 -2.597656 L 10.269531 -2.613281 C 9.6875 -1 8.433594 -0.148438 6.820312 -0.148438 C 3.714844 -0.148438 2.015625 -2.835938 2.03125 -5.640625 C 2.03125 -8.6875 3.867188 -10.269531 6.238281 -10.269531 C 8.015625 -10.269531 9.433594 -9.359375 10.015625 -8 L 10.164062 -8.027344 L 10.105469 -9.804688 C 9.523438 -10.179688 8.027344 -10.550781 6.746094 -10.550781 C 3.238281 -10.550781 0.777344 -8.195312 0.777344 -5.015625 C 0.777344 -1.761719 2.96875 0.148438 6.402344 0.148438 Z M 6.402344 0.148438 "/></g></g></g><g fill="#000000" fill-opacity="1"><g transform="translate(122.37533, 22.646139)"><g><path d="M 0.761719 0 L 3.179688 0 L 3.179688 -0.195312 C 2.714844 -0.328125 2.582031 -0.671875 2.582031 -1.894531 L 2.582031 -4.460938 L 3.6875 -5.597656 L 3.984375 -5.597656 C 5.492188 -5.640625 5.714844 -4.730469 6.699219 -2.3125 C 7.417969 -0.566406 7.6875 0.0742188 8.777344 0.0742188 C 9.089844 0.0742188 9.417969 0.0429688 9.671875 -0.03125 L 9.671875 -0.222656 C 9.582031 -0.207031 9.507812 -0.207031 9.417969 -0.207031 C 8.941406 -0.207031 8.609375 -0.730469 7.851562 -2.640625 C 6.835938 -5.195312 6.492188 -6 4.269531 -5.851562 L 3.925781 -5.835938 L 7.105469 -9.089844 C 7.953125 -9.96875 8.582031 -10.117188 9.058594 -10.253906 L 9.058594 -10.445312 L 6.984375 -10.445312 L 6.984375 -10.3125 C 7.566406 -10.222656 7.433594 -9.730469 6.492188 -8.761719 L 2.582031 -4.761719 L 2.582031 -8.550781 C 2.582031 -9.777344 2.714844 -10.117188 3.179688 -10.253906 L 3.179688 -10.445312 L 0.761719 -10.445312 L 0.761719 -10.253906 C 1.207031 -10.117188 1.359375 -9.777344 1.359375 -8.550781 L 1.359375 -1.894531 C 1.359375 -0.671875 1.207031 -0.328125 0.761719 -0.195312 Z M 0.761719 0 "/></g></g></g><g fill="#000000" fill-opacity="1"><g transform="translate(134.208872, 22.646139)"><g><path d="M 4.253906 0.148438 C 6.015625 0.148438 7.746094 -0.984375 7.746094 -2.851562 C 7.746094 -4.535156 6.195312 -5.195312 4.535156 -5.851562 C 3.269531 -6.371094 1.730469 -6.941406 1.730469 -8.34375 C 1.730469 -9.609375 2.761719 -10.3125 3.96875 -10.3125 C 5.671875 -10.3125 6.714844 -9.386719 7.269531 -8.089844 L 7.417969 -8.132812 L 7.359375 -9.863281 C 6.777344 -10.179688 5.804688 -10.550781 4.449219 -10.550781 C 2.253906 -10.550781 0.804688 -9.445312 0.804688 -7.699219 C 0.804688 -6.117188 1.925781 -5.492188 3.6875 -4.789062 C 4.941406 -4.285156 6.777344 -3.597656 6.777344 -2.105469 C 6.777344 -0.894531 5.746094 -0.121094 4.550781 -0.121094 C 2.476562 -0.121094 1.34375 -1.449219 0.761719 -3.015625 L 0.597656 -2.984375 L 0.671875 -0.910156 C 1.371094 -0.402344 2.6875 0.148438 4.253906 0.148438 Z M 4.253906 0.148438 "/></g></g></g><g fill="#000000" fill-opacity="1"><g transform="translate(144.71439, 22.646139)"><g><path d="M 5.386719 0.148438 C 7.460938 0.148438 9.105469 -0.984375 9.105469 -3.984375 L 9.105469 -8.550781 C 9.105469 -9.777344 9.253906 -10.117188 9.699219 -10.253906 L 9.699219 -10.445312 L 7.851562 -10.445312 L 7.851562 -10.253906 C 8.507812 -10.074219 8.863281 -9.65625 8.863281 -7.953125 L 8.863281 -3.941406 C 8.863281 -1.015625 7.148438 -0.164062 5.867188 -0.164062 C 3.925781 -0.164062 2.386719 -1.164062 2.386719 -3.941406 L 2.386719 -8.550781 C 2.386719 -9.777344 2.539062 -10.117188 2.984375 -10.253906 L 2.984375 -10.445312 L 0.566406 -10.445312 L 0.566406 -10.253906 C 1.03125 -10.117188 1.164062 -9.777344 1.164062 -8.550781 L 1.164062 -3.851562 C 1.164062 -0.851562 3.253906 0.148438 5.386719 0.148438 Z M 5.386719 0.148438 "/></g></g></g><g fill="#000000" fill-opacity="1"><g transform="translate(157.129874, 22.646139)"><g><path d="M 8.640625 0.121094 L 8.835938 0.121094 L 8.835938 -8.550781 C 8.835938 -9.777344 8.96875 -10.117188 9.433594 -10.253906 L 9.433594 -10.445312 L 7.550781 -10.445312 L 7.550781 -10.253906 C 8.222656 -10.074219 8.582031 -9.65625 8.582031 -7.953125 L 8.582031 -2 L 2.058594 -10.445312 L 0.597656 -10.445312 L 0.597656 -10.253906 C 1.195312 -10.117188 1.371094 -9.777344 1.371094 -8.550781 L 1.371094 -1.894531 C 1.371094 -0.671875 1.222656 -0.328125 0.777344 -0.195312 L 0.777344 0 L 2.640625 0 L 2.640625 -0.195312 C 1.96875 -0.375 1.613281 -0.789062 1.613281 -2.492188 L 1.613281 -9.027344 Z M 8.640625 0.121094 "/></g></g></g><g fill="#000000" fill-opacity="1"><g transform="translate(91.698994, 35.79422)"><g><path d="M 2.59375 0.0585938 C 3.429688 0.0585938 4.15625 -0.398438 4.542969 -1.074219 L 4.140625 -1.300781 C 3.84375 -0.761719 3.261719 -0.40625 2.59375 -0.40625 C 1.613281 -0.40625 0.820312 -1.191406 0.820312 -2.179688 C 0.820312 -3.167969 1.613281 -3.953125 2.59375 -3.953125 C 3.261719 -3.953125 3.84375 -3.597656 4.140625 -3.058594 L 4.542969 -3.285156 C 4.15625 -3.960938 3.429688 -4.417969 2.59375 -4.417969 C 1.359375 -4.417969 0.355469 -3.414062 0.355469 -2.179688 C 0.355469 -0.945312 1.359375 0.0585938 2.59375 0.0585938 Z M 2.59375 0.0585938 "/></g></g></g><g fill="#000000" fill-opacity="1"><g transform="translate(98.689595, 35.79422)"><g><path d="M 2.59375 0.0585938 C 3.835938 0.0585938 4.832031 -0.945312 4.832031 -2.179688 C 4.832031 -3.414062 3.835938 -4.417969 2.59375 -4.417969 C 1.359375 -4.417969 0.355469 -3.414062 0.355469 -2.179688 C 0.355469 -0.945312 1.359375 0.0585938 2.59375 0.0585938 Z M 2.59375 -0.40625 C 1.613281 -0.40625 0.820312 -1.191406 0.820312 -2.179688 C 0.820312 -3.167969 1.613281 -3.953125 2.59375 -3.953125 C 3.582031 -3.953125 4.367188 -3.167969 4.367188 -2.179688 C 4.367188 -1.191406 3.582031 -0.40625 2.59375 -0.40625 Z M 2.59375 -0.40625 "/></g></g></g><g fill="#000000" fill-opacity="1"><g transform="translate(106.094393, 35.79422)"><g><path d="M 3.664062 -4.359375 L 3.664062 -0.777344 L 0.964844 -4.359375 L 0.53125 -4.359375 L 0.53125 0 L 0.996094 0 L 0.996094 -3.582031 L 3.683594 0 L 4.121094 0 L 4.121094 -4.359375 Z M 3.664062 -4.359375 "/></g></g></g><g fill="#000000" fill-opacity="1"><g transform="translate(112.954194, 35.79422)"><g><path d="M 1.628906 0.0585938 C 2.367188 0.0585938 2.972656 -0.386719 2.972656 -1.148438 C 2.972656 -2.628906 0.851562 -2.265625 0.851562 -3.304688 C 0.851562 -3.742188 1.207031 -3.953125 1.613281 -3.953125 C 1.949219 -3.953125 2.222656 -3.816406 2.398438 -3.566406 L 2.761719 -3.875 C 2.523438 -4.179688 2.101562 -4.417969 1.597656 -4.417969 C 0.929688 -4.417969 0.386719 -3.980469 0.386719 -3.269531 C 0.386719 -1.867188 2.507812 -2.214844 2.507812 -1.132812 C 2.507812 -0.667969 2.121094 -0.40625 1.636719 -0.40625 C 1.140625 -0.40625 0.785156 -0.675781 0.632812 -1.074219 L 0.210938 -0.828125 C 0.4375 -0.289062 0.980469 0.0585938 1.628906 0.0585938 Z M 1.628906 0.0585938 "/></g></g></g><g fill="#000000" fill-opacity="1"><g transform="translate(118.346139, 35.79422)"><g><path d="M 2.144531 0.0585938 C 3.09375 0.0585938 3.785156 -0.574219 3.785156 -1.429688 L 3.785156 -4.359375 L 3.320312 -4.359375 L 3.320312 -1.503906 C 3.320312 -0.871094 2.820312 -0.40625 2.144531 -0.40625 C 1.46875 -0.40625 0.972656 -0.871094 0.972656 -1.503906 L 0.972656 -4.359375 L 0.507812 -4.359375 L 0.507812 -1.429688 C 0.507812 -0.574219 1.199219 0.0585938 2.144531 0.0585938 Z M 2.144531 0.0585938 "/></g></g></g><g fill="#000000" fill-opacity="1"><g transform="translate(124.849878, 35.79422)"><g><path d="M 0.996094 -0.464844 L 0.996094 -4.359375 L 0.53125 -4.359375 L 0.53125 0 L 2.617188 0 L 2.617188 -0.464844 Z M 0.996094 -0.464844 "/></g></g></g><g fill="#000000" fill-opacity="1"><g transform="translate(129.740425, 35.79422)"><g><path d="M 2.941406 -4.359375 L 0.0664062 -4.359375 L 0.0664062 -3.894531 L 1.273438 -3.894531 L 1.273438 0 L 1.738281 0 L 1.738281 -3.894531 L 2.941406 -3.894531 Z M 2.941406 -4.359375 "/></g></g></g><g fill="#000000" fill-opacity="1"><g transform="translate(134.957974, 35.79422)"><g><path d="M 0.566406 0 L 1.03125 0 L 1.03125 -4.359375 L 0.566406 -4.359375 Z M 0.566406 0 "/></g></g></g><g fill="#000000" fill-opacity="1"><g transform="translate(138.758527, 35.79422)"><g><path d="M 3.664062 -4.359375 L 3.664062 -0.777344 L 0.964844 -4.359375 L 0.53125 -4.359375 L 0.53125 0 L 0.996094 0 L 0.996094 -3.582031 L 3.683594 0 L 4.121094 0 L 4.121094 -4.359375 Z M 3.664062 -4.359375 "/></g></g></g><g fill="#000000" fill-opacity="1"><g transform="translate(145.61833, 35.79422)"><g><path d="M 2.609375 -2.3125 L 2.609375 -1.875 L 4.359375 -1.875 C 4.222656 -1.03125 3.496094 -0.40625 2.617188 -0.40625 C 1.636719 -0.40625 0.84375 -1.191406 0.84375 -2.179688 C 0.84375 -3.167969 1.636719 -3.953125 2.617188 -3.953125 C 3.277344 -3.953125 3.859375 -3.597656 4.15625 -3.058594 L 4.554688 -3.285156 C 4.179688 -3.960938 3.453125 -4.417969 2.617188 -4.417969 C 1.375 -4.417969 0.378906 -3.414062 0.378906 -2.179688 C 0.378906 -0.945312 1.375 0.0585938 2.617188 0.0585938 C 3.851562 0.0585938 4.855469 -0.945312 4.855469 -2.179688 L 4.855469 -2.3125 Z M 2.609375 -2.3125 "/></g></g></g></svg>